<svg width="20" height="20" viewBox="0 0 20 20" fill="none" xmlns="http://www.w3.org/2000/svg">
<path fill-rule="evenodd" clip-rule="evenodd" d="M14.4502 1.04387C12.7301 0.179997 10.7547 -0.155053 8.8445 0.0662299C5.15543 0.450037 1.83253 3.08668 0.598636 6.58095C-0.25034 8.90254 -0.195333 11.5417 0.757405 13.8245C1.64114 15.9761 3.30758 17.7926 5.37158 18.8665C7.23943 19.8479 9.42581 20.208 11.5098 19.8842C13.3552 19.6116 15.1115 18.7965 16.5205 17.5776C18.1307 16.2011 19.2832 14.2983 19.7495 12.2305C20.256 10.0265 19.9897 7.65236 18.9932 5.62205C18.037 3.65176 16.4118 2.01652 14.4502 1.04387Z" fill="#FDD835"/>
<path opacity="0.5" fill-rule="evenodd" clip-rule="evenodd" d="M13.9817 1.98661C12.4427 1.21366 10.6753 0.913881 8.96611 1.11187C5.66537 1.45528 2.69225 3.81438 1.58823 6.94083C0.828624 9.01805 0.87784 11.3794 1.73029 13.4219C2.521 15.347 4.01203 16.9723 5.85876 17.9332C7.53 18.8113 9.48624 19.1334 11.3509 18.8437C13.002 18.5999 14.5734 17.8705 15.8341 16.7799C17.2748 15.5484 18.306 13.8459 18.7233 11.9957C19.1764 10.0237 18.9381 7.89946 18.0465 6.08287C17.191 4.31998 15.7368 2.85687 13.9817 1.98661Z" stroke="#FFB500" stroke-width="0.685714"/>
<path fill-rule="evenodd" clip-rule="evenodd" d="M16.842 10C16.842 6.22059 13.7794 3.1579 9.99994 3.1579C6.22422 3.1579 3.15784 6.22059 3.15784 10C3.15784 13.7757 6.22422 16.8421 9.99994 16.8421C13.7794 16.8421 16.842 13.7757 16.842 10ZM15.7894 10.0082C15.7894 13.1987 13.2009 15.7895 9.99994 15.7895C6.80307 15.7895 4.21047 13.1987 4.21047 10.0082C4.21047 9.45737 4.29212 8.93105 4.43502 8.42105H15.5608C15.7078 8.93105 15.7894 9.45737 15.7894 10.0082Z" fill="#FFB500"/>
</svg>
