<svg xmlns="http://www.w3.org/2000/svg" xmlns:xlink="http://www.w3.org/1999/xlink" width="220" height="220" viewBox="0 0 220 220">
    <defs>
        <linearGradient id="g33vr7czxa" x1="29.88%" x2="70.154%" y1="94.291%" y2="5.734%">
            <stop offset="0%" stop-color="#1BA8FF"/>
            <stop offset="99.86%" stop-color="#4ACAFF"/>
        </linearGradient>
        <linearGradient id="qrke04wuwb" x1="97.593%" x2="7.118%" y1="88.77%" y2="6.454%">
            <stop offset="0%" stop-color="#E1FFFC" stop-opacity="0"/>
            <stop offset="100%" stop-color="#BBF2FF"/>
        </linearGradient>
        <path id="83711g93gc" d="M70.167 36.42c-3.01-2.509-5.77-4.517-8.28-6.022 0-5.645-.25-16.183-.25-21.578L30.023.164c-2.258 5.144-5.018 10.664-8.406 16.309-1.254 2.133-2.509 4.14-3.889 6.022-4.767 3.262-6.648-.251-12.545.502-5.394.627-5.896 10.413-1.881 12.67 14.677 8.28 27.473 9.033 37.384 6.9 3.638.879 16.058 4.015 21.452 6.398 8.531 3.639 18.693-3.638 8.03-12.545z"/>
    </defs>
    <g fill="none" fill-rule="evenodd">
        <g>
            <g>
                <g>
                    <path fill="#BBF2FF" fill-rule="nonzero" d="M58.625 197.89c21.161 0 38.316-1.3 38.316-2.907 0-1.605-17.155-2.906-38.316-2.906-21.162 0-38.317 1.301-38.317 2.906 0 1.606 17.155 2.908 38.317 2.908z" transform="translate(-78 -156) translate(16 156) translate(62)"/>
                    <path fill="#1BA8FF" fill-rule="nonzero" d="M90.475 175.19c-3.01-2.51-5.77-4.517-8.28-6.023 0-5.644-.25-16.182-.25-21.577l-31.615-8.657c-2.258 5.144-5.018 10.664-8.405 16.31-1.254 2.132-2.509 4.14-3.889 6.021-4.767 3.262-6.649-.251-12.545.502-5.395.627-5.896 10.413-1.882 12.67 14.678 8.28 27.474 9.033 37.385 6.9 3.638.879 16.058 4.015 21.452 6.398 8.53 3.639 18.692-3.638 8.029-12.545z" transform="translate(-78 -156) translate(16 156) translate(62)"/>
                    <path fill="#008AE8" fill-rule="nonzero" d="M103.271 143.199c35.502-3.261 40.396-20.7 28.226-21.703-12.168-1.004-38.89 10.161-38.89 10.161" transform="translate(-78 -156) translate(16 156) translate(62)"/>
                    <path fill="#008AE8" fill-rule="nonzero" d="M100.385 143.199s20.95-3.513 32.116-9.158c0 0-8.28 7.904-31.488 10.287l-.628-1.13z" transform="translate(-78 -156) translate(16 156) translate(62)"/>
                    <path fill="#FFD530" fill-rule="nonzero" d="M66.764 145.708s-16.057 3.262-43.531 8.53c1.505-.25-8.28-3.387-6.398-5.519 2.76-6.147 5.269-5.645 9.785-7.652 3.01-1.38 2.634-4.391 6.147-7.151 3.513-2.76 8.53-4.014 25.341 3.512 2.886 2.635 5.771 5.394 8.656 8.28z" transform="translate(-78 -156) translate(16 156) translate(62)"/>
                    <path fill="#FFB800" fill-rule="nonzero" d="M65.51 145.709s-51.184 4.766-59.59 2.382c0 0 3.513 6.775 15.807 6.9 12.42 0 43.783-9.282 43.783-9.282z" transform="translate(-78 -156) translate(16 156) translate(62)"/>
                    <path fill="url(#g33vr7czxa)" fill-rule="nonzero" d="M131.247 90.133c.627 30.986-24.463 56.58-56.077 57.331-31.488.753-57.457-23.71-57.959-54.572-.627-30.986 24.463-56.578 56.077-57.33 31.489-.879 57.582 23.584 57.959 54.571z" transform="translate(-78 -156) translate(16 156) translate(62)"/>
                    <path fill="#008AE8" fill-rule="nonzero" d="M77.553 145.959c-31.363.753-57.457-23.71-57.959-54.572-.376-19.946 9.911-37.635 25.593-47.922C28.125 53.5 16.835 71.942 17.21 92.892c.502 30.987 26.596 55.45 57.959 54.572 11.667-.25 22.456-4.014 31.362-10.036-8.404 5.144-18.315 8.28-28.979 8.531z" transform="translate(-78 -156) translate(16 156) translate(62)"/>
                    <path fill="url(#qrke04wuwb)" fill-rule="nonzero" d="M94.615 50.24c4.14 1.881 14.804 8.28 19.32 17.186.627 1.38 2.132 1.631 3.512.878 1.13-.627 1.505-1.881 1.004-3.01-1.882-4.391-7.904-15.055-21.829-19.822-1.38-.502-3.136.376-3.387 2.007v.251c-.125 1.004.502 2.007 1.38 2.51z" transform="translate(-78 -156) translate(16 156) translate(62)"/>
                    <path fill="#BBF2FF" fill-rule="nonzero" d="M87.84 48.232c1.506.25 3.012-.753 3.137-2.51.251-1.504-.752-3.01-2.51-3.135-1.504-.251-3.01.752-3.136 2.509-.125 1.505.879 2.885 2.51 3.136z" transform="translate(-78 -156) translate(16 156) translate(62)"/>
                    <path fill="#FFF" fill-rule="nonzero" d="M131.247 90.133c-.125-6.774-1.38-13.173-3.764-19.069-10.788 3.513-22.581 6.775-35.503 9.66-18.441 4.015-35.377 6.272-50.557 7.527-.627 5.144 0 9.283.628 12.796 5.018 25.09 29.606 41.274 54.697 36.256 8.656-1.757 16.183-5.77 22.204-11.291 8.03-10.036 12.545-22.455 12.295-35.879z" transform="translate(-78 -156) translate(16 156) translate(62)"/>
                    <path fill="#BBF2FF" fill-rule="nonzero" d="M127.483 71.064c-1.003.377-2.007.628-3.01 1.004 2.257 5.896 3.512 12.169 3.637 18.817.377 15.807-6.147 30.36-16.685 40.772 2.76-1.63 5.269-3.512 7.527-5.645 8.03-10.036 12.545-22.455 12.295-35.879-.126-6.774-1.38-13.173-3.764-19.069z" transform="translate(-78 -156) translate(16 156) translate(62)"/>
                    <path fill="#FFD530" fill-rule="nonzero" d="M138.021 116.98c-1.882 0-3.136-.126-3.262-.251-.627-.126-1.128-.753-1.128-1.38.125-.627.752-1.13 1.38-1.13.125 0 9.408 1.256 15.305-3.512l-.377-.376c-3.512-3.764-4.892-9.033-3.136-12.169 1.631-2.885 5.143-4.015 7.904-2.635 2.634 1.38 4.39 5.144 1.38 11.667-.628 1.255-1.255 2.384-2.134 3.387 2.134 1.38 5.27 2.384 9.158.753 9.66-4.265 9.786-20.7 9.786-20.824 0-.753.502-1.255 1.254-1.255.753 0 1.255.502 1.255 1.255 0 .752-.125 18.19-11.291 23.083-4.014 1.756-8.405 1.254-11.917-1.255-4.392 3.889-10.413 4.642-14.177 4.642zm14.177-19.446c-1.255 0-2.51.628-3.262 1.882-1.13 2.133.125 6.273 2.76 9.158l.376.377c.627-.753 1.254-1.757 1.756-2.76 2.259-4.893 1.38-7.527-.251-8.405-.376-.126-.878-.252-1.38-.252z" transform="translate(-78 -156) translate(16 156) translate(62)"/>
                    <path fill="#1BA8FF" fill-rule="nonzero" d="M77.177 159.884c35.503-3.262 40.396-20.7 28.227-21.703-12.044-1.003-38.89 10.162-38.89 10.162" transform="translate(-78 -156) translate(16 156) translate(62)"/>
                    <path fill="#008AE8" fill-rule="nonzero" d="M74.292 159.884s20.95-3.512 32.115-9.158c0 0-8.28 7.903-31.488 10.287l-.627-1.129z" transform="translate(-78 -156) translate(16 156) translate(62)"/>
                    <path fill="#FFD530" fill-rule="nonzero" d="M125.386 56.698s9.572 14.546 10.541 28.439l13.47-.044s-9.975-4.675-7-8.999c2.976-4.324 18.653-6.67 18.653-6.67s-15.843-2.653-16.435-8.519c-.491-4.44 4.86-11.256 4.86-11.256s-8.357 8.1-11.487 7.602c-3.118-.32-5.07-10.027-5.07-10.027s-.979 12.06-7.532 9.474z" transform="translate(-78 -156) translate(16 156) translate(62)"/>
                    <path fill="#FFB800" fill-rule="nonzero" d="M204.51 73.699c-.752-2.635.502-5.395 2.76-6.9.879-.502 1.255-1.63 1.004-2.51l-1.38-4.766c-.376-1.13-1.505-1.757-2.634-1.255l-39.517 13.674c-1.13.377-1.882 1.631-1.506 2.76l1.38 4.768c.251.878 1.13 1.505 2.133 1.38 2.634-.126 5.018 1.38 5.77 4.014.753 2.634-.501 5.394-2.76 6.9-.878.501-1.254 1.631-1.003 2.509l1.38 4.767c.377 1.13 1.505 1.756 2.634 1.255L212.29 86.62c1.129-.376 1.882-1.63 1.505-2.76l-1.38-4.767c-.251-.878-1.129-1.505-2.133-1.38-2.634.126-5.018-1.505-5.77-4.014z" transform="translate(-78 -156) translate(16 156) translate(62)"/>
                    <path fill="#FFD530" fill-rule="nonzero" d="M169.76 91.638c-.25.126-.501.377-.627.627 3.388-.125 6.775-.752 10.287-1.881 13.8-4.893 21.954-17.187 18.316-27.6-.25-.752-.502-1.38-.878-2.007l-32.115 11.04c-1.13.376-1.882 1.63-1.506 2.76l1.38 4.767c.251.878 1.13 1.505 2.133 1.38 2.634-.125 5.018 1.38 5.77 4.014.753 2.51-.501 5.395-2.76 6.9z" transform="translate(-78 -156) translate(16 156) translate(62)"/>
                    <path fill="#FFF" d="M193.641 68.413c.633.302.9 1.06.599 1.692L185.082 89.3c-.301.633-1.06.9-1.692.599-.633-.302-.9-1.06-.599-1.693l9.158-19.194c.302-.632 1.06-.9 1.692-.599z" transform="translate(-78 -156) translate(16 156) translate(62)"/>
                    <path fill="#FFF" fill-rule="nonzero" d="M180.8 78.466c1.663 0 3.01-1.348 3.01-3.01 0-1.664-1.347-3.012-3.01-3.012-1.662 0-3.01 1.348-3.01 3.011s1.348 3.01 3.01 3.01zM196.23 85.868c1.663 0 3.011-1.348 3.011-3.011s-1.348-3.011-3.01-3.011c-1.663 0-3.01 1.348-3.01 3.01 0 1.664 1.347 3.012 3.01 3.012z" transform="translate(-78 -156) translate(16 156) translate(62)"/>
                    <g transform="translate(-78 -156) translate(16 156) translate(62) translate(20.308 138.77)">
                        <mask id="j53hhg8a2d" fill="#fff">
                            <use xlink:href="#83711g93gc"/>
                        </mask>
                        <g fill-rule="nonzero" mask="url(#j53hhg8a2d)">
                            <g>
                                <path fill="#008AE8" d="M.827 21.128c6.147 2.383 15.305 4.767 26.345 4.14 3.512-.251 6.774-.753 9.66-1.38 0 0 9.032-2.635 13.298-4.767 0 0-6.273 5.017-9.66 6.022l12.42 6.146c-7.528.753-18.442.878-31.113-2.257-8.53-2.008-15.556-5.019-20.95-7.904z" transform="translate(4.23 16.923)"/>
                                <path fill="#FFF" d="M42.728 9.963c-18.065-2.51-28.227-6.9-28.729-7.026L15.13.553c.25 0 19.57 8.28 51.936 8.657v2.634c-9.283-.125-17.312-.878-24.337-1.881z" transform="translate(4.23 16.923)"/>
                                <path fill="#FFF" d="M52.764 12.723c2.148 0 3.89-1.236 3.89-2.76 0-1.524-1.742-2.76-3.89-2.76s-3.889 1.236-3.889 2.76c0 1.524 1.741 2.76 3.89 2.76z" transform="translate(4.23 16.923)"/>
                            </g>
                        </g>
                    </g>
                </g>
            </g>
        </g>
    </g>
</svg>
